<svg xmlns="http://www.w3.org/2000/svg" version="1.1" xmlns:xlink="http://www.w3.org/1999/xlink" xmlns:svgjs="http://svgjs.dev/svgjs" width="1000" height="1125" viewBox="0 0 1000 1125"><g transform="matrix(1,0,0,1,0,0)"><svg viewBox="0 0 320 360" data-background-color="#ffffff" preserveAspectRatio="xMidYMid meet" height="1125" width="1000" xmlns="http://www.w3.org/2000/svg" xmlns:xlink="http://www.w3.org/1999/xlink"><g id="tight-bounds" transform="matrix(1,0,0,1,0,0)"><svg viewBox="0 0 320 360" height="360" width="320"><rect width="320" height="360" fill="url(#20f7997f-523b-4207-ad4b-c5dad8707b82)" mask="url(#3e2d3e45-94fa-429f-b268-1de0b0cff41d)" data-fill-palette-color="tertiary"></rect><g><svg></svg></g><g><svg viewBox="0 0 320 360" height="360" width="320"><g><path d="M320 187.111c0-45.764-20.238-86.866-52.203-114.908-28.043-31.964-69.145-52.203-114.908-52.203-84.302 0-152.889 68.587-152.889 152.889 0 45.753 20.231 86.848 52.185 114.891 28.043 31.975 69.152 52.22 114.926 52.22 0.299 0 0.59-0.021 0.889-0.021 0.299 0 0.59 0.021 0.889 0.021 83.456 0 151.111-67.655 151.111-151.111 0-0.299-0.021-0.59-0.021-0.889 0-0.299 0.021-0.59 0.021-0.889zM59.833 263.097c-15.093-21.255-24.071-47.143-24.256-75.097 0.48-72.928 59.492-131.943 132.423-132.423 27.954 0.185 53.845 9.163 75.097 24.256 24.366 23.627 39.57 56.64 39.57 93.056 0 71.559-58.219 129.778-129.778 129.778-36.416 0-69.429-15.204-93.056-39.57zM3.556 172.889c0-82.343 66.99-149.333 149.333-149.333 35.051 0 67.292 12.167 92.8 32.462-22.98-13.824-49.863-21.796-78.578-21.796-84.302 0-152.889 68.587-152.889 152.889 0 28.708 7.968 55.584 21.785 78.56-20.288-25.5-32.452-57.739-32.451-92.782zM167.111 318.667c-35.84 0-68.363-14.418-92.107-37.743 21.952 15.89 48.864 25.298 77.885 25.298 73.522 0 133.333-59.812 133.333-133.333 0-29.02-9.408-55.932-25.298-77.885 23.324 23.744 37.742 56.267 37.743 92.107 0 72.54-59.015 131.556-131.556 131.556z" fill="url(#20f7997f-523b-4207-ad4b-c5dad8707b82)" fill-rule="nonzero" stroke="none" stroke-width="1" stroke-linecap="butt" stroke-linejoin="miter" stroke-miterlimit="10" stroke-dasharray="" stroke-dashoffset="0" font-family="none" font-weight="none" font-size="none" text-anchor="none" style="mix-blend-mode: normal" data-fill-palette-color="tertiary"></path></g><g transform="matrix(1,0,0,1,64,108.27852998065764)"><svg viewBox="0 0 192 143.44294003868472" height="143.44294003868472" width="192"><g><svg viewBox="0 0 192 143.44294003868472" height="143.44294003868472" width="192"><g><svg viewBox="0 0 192 143.44294003868472" height="143.44294003868472" width="192"><g><svg viewBox="0 0 192 143.44294003868472" height="143.44294003868472" width="192"><g id="textblocktransform"><svg viewBox="0 0 192 143.44294003868472" height="143.44294003868472" width="192" id="textblock"><g><svg viewBox="0 0 192 143.44294003868472" height="143.44294003868472" width="192"><g transform="matrix(1,0,0,1,0,0)"><svg width="192" viewBox="2.61 -36.04 50.49 37.72" height="143.44294003868472" data-palette-color="#ffffff"><path d="M2.91-32.52L2.91-32.52Q3.05-32.62 3.41-32.78 3.76-32.93 4.24-33.13 4.71-33.33 5.26-33.56 5.81-33.79 6.37-34.01L6.37-34.01 9.2-35.13Q9.52-35.28 9.79-35.28L9.79-35.28Q9.99-35.28 10.22-35.17 10.45-35.06 10.74-34.77L10.74-34.77 16.38-23.83 16.53-24.19 18.95-28.66Q19.41-29.49 19.86-30.3 20.31-31.1 20.67-31.74 21.02-32.37 21.26-32.76 21.51-33.15 21.56-33.15L21.56-33.15 29.93-35.25Q30.22-35.33 30.42-35.33L30.42-35.33Q30.98-35.33 30.98-34.81L30.98-34.81Q30.96-34.69 30.93-34.48 30.91-34.28 30.79-34.03L30.79-34.03 23.61-20.73Q23.07-19.73 22.52-18.73 21.97-17.72 21.46-16.83 20.95-15.94 20.54-15.21 20.14-14.48 19.9-14.01L19.9-14.01 19.73-13.21 18.36-4.05Q18.29-3.64 18.24-3.37 18.19-3.1 18.1-2.93 18.02-2.76 17.88-2.64 17.75-2.51 17.5-2.39L17.5-2.39 10.57 1.25Q10.18 1.44 9.75 1.56 9.33 1.68 8.94 1.68L8.94 1.68Q8.52 1.68 8.23 1.5 7.93 1.32 7.93 0.9L7.93 0.9 7.93 0.81Q8.03-0.59 8.29-2.43 8.54-4.27 8.84-6.03L8.84-6.03 10.21-15.09Q9.81-15.92 9.18-17.29 8.54-18.65 7.81-20.24 7.08-21.83 6.29-23.51 5.49-25.2 4.8-26.7 4.1-28.2 3.55-29.35 3-30.49 2.73-31.03L2.73-31.03Q2.61-31.4 2.61-31.79L2.61-31.79Q2.61-32.01 2.67-32.21 2.73-32.42 2.91-32.52ZM43.58-34.99L43.58-34.99Q43.55-34.4 43.48-33.53 43.41-32.67 43.32-31.7 43.23-30.74 43.12-29.75 43.02-28.76 42.93-27.93 42.84-27.1 42.8-26.5 42.75-25.9 42.75-25.73L42.75-25.73Q42.65-24.22 42.54-22.92 42.43-21.63 42.31-20.36 42.19-19.09 42.05-17.74 41.92-16.38 41.77-14.75 41.62-13.11 41.44-11.11 41.26-9.11 41.06-6.52L41.06-6.52 51.17-7.54Q51.85-7.62 52.29-7.62L52.29-7.62Q52.83-7.62 52.96-7.45 53.1-7.28 53.1-6.91L53.1-6.91Q53.1-6.86 53.07-6.77 53.05-6.69 52.96-6.45 52.88-6.2 52.72-5.74 52.56-5.27 52.29-4.44L52.29-4.44 51.76-2.83Q51.49-2.05 51.25-1.43 51.02-0.81 50.68-0.35 50.34 0.1 49.83 0.37 49.31 0.63 48.51 0.71L48.51 0.71Q48 0.76 47.12 0.79 46.24 0.83 45.09 0.87 43.94 0.9 42.61 0.95 41.28 1 39.89 1.07L39.89 1.07Q38.52 1.12 37.13 1.14 35.74 1.15 34.49 1.17 33.25 1.2 32.2 1.22 31.15 1.25 30.47 1.27L30.47 1.27Q29.83 1.27 29.55 1.17 29.27 1.07 29.27 0.85L29.27 0.85Q29.27 0.59 29.44 0.09 29.61-0.42 29.88-1.04 30.15-1.66 30.48-2.33 30.81-3 31.13-3.64L31.13-3.64 31.78-12.35Q31.98-14.58 32.18-16.87 32.37-19.17 32.52-21.31L32.52-21.31 32.93-27.78Q33.08-30.08 33.13-31.12 33.18-32.15 33.18-32.25L33.18-32.25Q33.23-32.69 33.25-32.98 33.27-33.28 33.33-33.47 33.4-33.67 33.52-33.76 33.64-33.86 33.88-33.91L33.88-33.91 42.45-35.94Q42.72-36.04 43.11-36.04L43.11-36.04Q43.38-36.04 43.49-35.88 43.6-35.72 43.6-35.28L43.6-35.28Q43.6-35.23 43.59-35.14 43.58-35.06 43.58-34.99Z" opacity="1" transform="matrix(1,0,0,1,0,0)" fill="#ffffff" class="wordmark-text-0" data-fill-palette-color="primary" id="text-0"></path></svg></g></svg></g></svg></g></svg></g><g></g></svg></g></svg></g></svg></g></svg></g><defs></defs><mask id="3e2d3e45-94fa-429f-b268-1de0b0cff41d"><g id="SvgjsG1473"><svg viewBox="0 0 320 360" height="360" width="320"><g><svg></svg></g><g><svg viewBox="0 0 320 360" height="360" width="320"><g><path d="M320 187.111c0-45.764-20.238-86.866-52.203-114.908-28.043-31.964-69.145-52.203-114.908-52.203-84.302 0-152.889 68.587-152.889 152.889 0 45.753 20.231 86.848 52.185 114.891 28.043 31.975 69.152 52.22 114.926 52.22 0.299 0 0.59-0.021 0.889-0.021 0.299 0 0.59 0.021 0.889 0.021 83.456 0 151.111-67.655 151.111-151.111 0-0.299-0.021-0.59-0.021-0.889 0-0.299 0.021-0.59 0.021-0.889zM59.833 263.097c-15.093-21.255-24.071-47.143-24.256-75.097 0.48-72.928 59.492-131.943 132.423-132.423 27.954 0.185 53.845 9.163 75.097 24.256 24.366 23.627 39.57 56.64 39.57 93.056 0 71.559-58.219 129.778-129.778 129.778-36.416 0-69.429-15.204-93.056-39.57zM3.556 172.889c0-82.343 66.99-149.333 149.333-149.333 35.051 0 67.292 12.167 92.8 32.462-22.98-13.824-49.863-21.796-78.578-21.796-84.302 0-152.889 68.587-152.889 152.889 0 28.708 7.968 55.584 21.785 78.56-20.288-25.5-32.452-57.739-32.451-92.782zM167.111 318.667c-35.84 0-68.363-14.418-92.107-37.743 21.952 15.89 48.864 25.298 77.885 25.298 73.522 0 133.333-59.812 133.333-133.333 0-29.02-9.408-55.932-25.298-77.885 23.324 23.744 37.742 56.267 37.743 92.107 0 72.54-59.015 131.556-131.556 131.556z" fill="white" fill-rule="nonzero" stroke="none" stroke-width="1" stroke-linecap="butt" stroke-linejoin="miter" stroke-miterlimit="10" stroke-dasharray="" stroke-dashoffset="0" font-family="none" font-weight="none" font-size="none" text-anchor="none" style="mix-blend-mode: normal"></path></g><g transform="matrix(1,0,0,1,64,108.27852998065764)"><svg viewBox="0 0 192 143.44294003868472" height="143.44294003868472" width="192"><g><svg viewBox="0 0 192 143.44294003868472" height="143.44294003868472" width="192"><g><svg viewBox="0 0 192 143.44294003868472" height="143.44294003868472" width="192"><g><svg viewBox="0 0 192 143.44294003868472" height="143.44294003868472" width="192"><g id="SvgjsG1472"><svg viewBox="0 0 192 143.44294003868472" height="143.44294003868472" width="192" id="SvgjsSvg1471"><g><svg viewBox="0 0 192 143.44294003868472" height="143.44294003868472" width="192"><g transform="matrix(1,0,0,1,0,0)"><svg width="192" viewBox="2.61 -36.04 50.49 37.72" height="143.44294003868472" data-palette-color="#ffffff"></svg></g></svg></g></svg></g></svg></g><g></g></svg></g></svg></g></svg></g></svg></g><defs><mask></mask></defs></svg></g></mask><linearGradient x1="0" x2="1" y1="0.578" y2="0.595" id="20f7997f-523b-4207-ad4b-c5dad8707b82"><stop stop-color="#6ee2f5" offset="0"></stop><stop stop-color="#6454f0" offset="1"></stop></linearGradient></svg><rect width="320" height="360" fill="none" stroke="none" visibility="hidden"></rect></g></svg></g></svg>